HIERARCHY
ROOT Hips
{
	OFFSET 0.000000 0.000000 0.000000 
	CHANNELS 6 Xposition Yposition Zposition Yrotation Zrotation Xrotation 
	JOINT Lumbar
	{
		OFFSET 0.000000 0.000000 0.000000 
		CHANNELS 3 Zrotation Xrotation Yrotation
		JOINT Neck
		{
			OFFSET 0.000000 0.445665 0.000000 
			CHANNELS 3 Zrotation Xrotation Yrotation
			End Site
			{
				OFFSET 0.000000 0.227535 0.000000 
			}
		}
		JOINT RightShoulder
		{
			OFFSET 0.019635 0.377685 0.194865 
			CHANNELS 3 Zrotation Xrotation Yrotation
			JOINT RightElbow
			{
				OFFSET 0.000000 -0.243375 0.000000 
				CHANNELS 2 Zrotation Yrotation
				JOINT RightWrist
				{
					OFFSET 0.000000 -0.264825 0.000000 
					CHANNELS 2 Zrotation Xrotation
					End Site
					{
						OFFSET 0.006600 -0.176220 0.000990 
					}
				}
			}
		}
		JOINT LeftShoulder
		{
			OFFSET 0.019635 0.377685 -0.194865 
			CHANNELS 3 Zrotation Xrotation Yrotation
			JOINT LeftElbow
			{
				OFFSET 0.000000 -0.243375 0.000000 
				CHANNELS 2 Zrotation Yrotation
				JOINT LeftWrist
				{
					OFFSET 0.000000 -0.264825 0.000000 
					CHANNELS 2 Zrotation Xrotation
					End Site
					{
						OFFSET 0.006600 -0.176220 -0.000990 
					}
				}
			}
		}
	}
	JOINT RightHip
	{
		OFFSET 0.052140 -0.069960 0.075570 
		CHANNELS 3 Zrotation Xrotation Yrotation
		JOINT RightKnee
		{
			OFFSET 0.000000 -0.402270 0.000000 
			CHANNELS 1 Zrotation
			JOINT RightAnkle
			{
				OFFSET 0.000000 -0.404085 0.000000 
				CHANNELS 3 Zrotation Xrotation Yrotation
				End Site
				{
					OFFSET 0.204105 -0.089430 0.008415 
				}
			}
		}
	}
	JOINT LeftHip
	{
		OFFSET 0.052140 -0.069960 -0.075570 
		CHANNELS 3 Zrotation Xrotation Yrotation
		JOINT LeftKnee
		{
			OFFSET 0.000000 -0.402270 0.000000 
			CHANNELS 1 Zrotation
			JOINT LeftAnkle
			{
				OFFSET 0.000000 -0.404085 0.000000 
				CHANNELS 3 Zrotation Xrotation Yrotation
				End Site
				{
					OFFSET 0.204105 -0.089430 -0.008415 
				}
			}
		}
	}
}
MOTION
Frames: 28
Frame Time: 0.02
1.51741 0.69686 0.79153 892.46599 0 5.14095 -6.39438 -0.23728 -1.0544 -1.10295 -1.99267 -1.76816 14.36644 -9.08922 35.98545 134.13675 107.28331 -54.55237 -5.84513 25.00951 1.52505 -47.42504 44.23338 -115.87418 -41.71908 7.34186 67.33331 13.15246 0.72653 -71.81664 3.415 1.6358 14.77643 86.55064 -12.8932 28.88338 -90.45528 -18.09868 2.3399 -5.32054
1.51868 0.69605 0.79123 892.54041 0 5.2567 -6.08648 -0.42913 -0.95799 -0.85301 -2.26464 -1.70876 13.62811 -9.22718 37.02187 134.44686 109.85848 -54.14432 -6.12564 24.96008 1.04585 -47.50658 43.22515 -116.13645 -40.16839 7.48772 67.49199 13.15278 0.9012 -71.89888 3.30828 1.61382 14.77438 86.67459 -12.89273 28.98617 -90.25431 -18.09403 2.34886 -5.20351
1.52006 0.69518 0.79088 892.63261 0 5.35061 -5.79552 -0.61511 -0.83008 -0.5813 -2.51499 -1.61272 12.72654 -9.51026 37.88414 134.91353 111.65485 -52.59849 -6.37017 24.71826 0.67411 -47.59295 42.82397 -116.20085 -38.6483 7.62442 67.65617 13.15551 1.05283 -71.9702 3.19132 1.5875 14.77565 86.79938 -12.89204 29.11215 -90.03753 -18.08428 2.35916 -5.0747
1.5214 0.69434 0.79057 892.7181 0 5.4517 -5.49837 -0.80079 -0.71741 -0.31622 -2.77078 -1.53443 11.90446 -9.72574 38.7921 135.29352 113.85166 -51.55822 -6.64573 24.57241 0.25181 -47.69252 42.11893 -116.36077 -37.20861 7.7707 67.82005 13.15719 1.21419 -72.04775 3.0768 1.56223 14.77619 86.92981 -12.89152 29.22505 -89.83194 -18.07647 2.36799 -4.95321
1.52272 0.69349 0.79021 892.79921 0 5.56589 -5.19548 -1.00057 -0.60135 -0.0632 -3.04437 -1.4514 11.06393 -9.94888 39.84698 135.73324 115.86136 -50.56729 -6.85749 24.38765 -0.16842 -47.72638 41.51817 -116.48936 -35.37521 7.89627 67.97597 13.15951 1.38333 -72.121 2.97397 1.53927 14.77632 87.03416 -12.89084 29.3505 -89.60688 -18.06838 2.38031 -4.82766
1.52408 0.69264 0.78993 892.8922 0 5.6465 -4.90798 -1.16898 -0.4844 0.21911 -3.27461 -1.36926 10.2239 -10.19018 40.5541 136.08814 118.06523 -49.21025 -7.19337 24.23616 -0.56402 -47.89386 40.85756 -116.63828 -34.35285 8.06003 68.14868 13.1608 1.52738 -72.19975 2.84321 1.511 14.77704 87.19416 -12.89031 29.45387 -89.42129 -18.06218 2.3857 -4.70296
1.52555 0.69176 0.7899 893.02531 0 5.64621 -4.66321 -1.25213 -0.37622 0.58125 -3.40803 -1.30296 9.39601 -10.44684 40.32033 136.16835 121.08232 -47.03155 -7.89158 24.26417 -0.93657 -48.48873 39.78184 -116.90371 -35.74973 8.35602 68.37366 13.15816 1.62822 -72.302 2.6413 1.4702 14.77788 87.49577 -12.89134 29.50025 -89.32724 -18.03953 2.37206 -4.62446
1.52703 0.69089 0.78994 893.16773 0 5.6116 -4.4326 -1.30363 -0.26773 0.97125 -3.49571 -1.23828 8.57869 -10.71636 39.74549 136.15899 124.30504 -44.5389 -8.71388 24.32663 -1.28482 -49.20886 38.6415 -117.19601 -37.93321 8.68649 68.61388 13.15436 1.70077 -72.40905 2.41096 1.42433 14.77891 87.85485 -12.89231 29.52193 -89.27704 -18.02263 2.35138 -4.5406
1.52846 0.69002 0.78993 893.29791 0 5.58823 -4.19243 -1.36955 -0.15679 1.3453 -3.59297 -1.16979 7.77478 -10.97967 39.34135 136.1929 127.37714 -42.24726 -9.47328 24.34641 -1.63046 -49.83191 37.60171 -117.46867 -39.62969 8.98475 68.84228 13.15129 1.77201 -72.51009 2.19069 1.38028 14.7799 88.19615 -12.89263 29.54811 -89.22141 -18.01888 2.33362 -4.43088
1.53006 0.68909 0.79001 893.4617 0 5.58221 -3.96553 -1.43547 -0.0549 1.73347 -3.73633 -1.11217 6.88862 -11.25038 38.86638 136.22143 130.66483 -39.67031 -10.26072 24.46945 -2.02688 -50.61961 36.29493 -117.76324 -41.85479 9.35136 69.09163 13.14751 1.90078 -72.62683 1.98099 1.33786 14.78089 88.50493 -12.89588 29.60242 -89.10595 -17.95085 2.31693 -4.43571
1.53132 0.6883 0.78993 893.55851 0 5.53257 -3.71478 -1.49355 0.06452 2.09922 -3.77363 -1.0338 6.17812 -11.50584 38.45843 136.23775 133.56072 -37.62723 -11.01735 24.39312 -2.31715 -51.10025 35.50542 -118.02416 -43.18919 9.5854 69.30078 13.14487 1.90519 -72.71226 1.7441 1.29119 14.78185 88.89177 -12.89291 29.59334 -89.12332 -18.01505 2.2965 -4.2065
1.53162 0.68787 0.78932 893.45934 0 5.36748 -3.38949 -1.54093 0.2402 2.39045 -3.52507 -0.88944 5.95303 -11.72386 38.33449 136.24261 135.34184 -37.14578 -11.67936 23.71513 -2.28534 -50.64825 36.29416 -118.16026 -41.66282 9.43211 69.39635 13.14573 1.55745 -72.70935 1.42665 1.23172 14.78264 89.5079 -12.87399 29.40361 -89.51696 -18.469 2.26592 -3.28484
1.53158 0.68758 0.78857 893.29424 0 5.16045 -3.04079 -1.58088 0.43169 2.65919 -3.17238 -0.72601 5.90463 -11.92383 38.28775 136.23742 136.72178 -37.21608 -12.30259 22.84365 -2.15393 -49.89211 37.5797 -118.26651 -39.24889 9.14666 69.45079 13.14774 1.08898 -72.67502 1.08535 1.16863 14.78337 90.19509 -12.84873 29.15319 -90.03868 -19.05065 2.23214 -2.13756
1.5317 0.68723 0.78792 893.16469 0 4.97488 -2.70594 -1.62223 0.61085 2.94179 -2.87005 -0.5768 5.77418 -12.12629 38.19634 136.23581 138.27845 -37.03264 -12.92989 22.09052 -2.09238 -49.31184 38.54416 -118.40511 -37.38177 8.93014 69.52318 13.14914 0.68563 -72.6555 0.76297 1.10872 14.78411 90.83189 -12.82543 28.93783 -90.4891 -19.5572 2.20077 -1.12379
1.53178 0.68687 0.78711 893.01091 0 4.77777 -2.35735 -1.67102 0.81253 3.20968 -2.55272 -0.40365 5.65126 -12.35368 38.1333 136.23534 139.8672 -36.85049 -13.61793 21.21257 -1.92878 -48.58065 39.90056 -118.4686 -34.94838 8.67733 69.5989 13.15085 0.23629 -72.63363 0.40479 1.04205 14.78492 91.54836 -12.80549 28.68925 -90.99793 -20.13737 2.16493 0.02422
1.53187 0.68656 0.78661 892.89306 0 4.59542 -2.03252 -1.70271 0.97009 3.50291 -2.24322 -0.27646 5.55464 -12.52437 38.03408 136.23125 141.28902 -36.8005 -14.1696 20.54507 -1.95101 -48.08536 40.57006 -118.6769 -33.4585 8.46833 69.65815 13.15221 -0.14344 -72.60948 0.11675 0.9888 14.78557 92.11343 -12.77772 28.49675 -91.41293 -20.59271 2.13794 0.94204
1.53202 0.68638 0.78698 892.87953 0 4.46219 -1.77127 -1.69154 1.01033 3.86718 -1.97469 -0.27545 5.48674 -12.54549 37.81734 136.21985 142.36628 -36.98722 -14.34487 20.53377 -2.54037 -48.35469 39.12809 -119.32944 -34.9164 8.41196 69.67793 13.15233 -0.32014 -72.58354 0.02065 0.97222 14.78583 92.2567 -12.72394 28.46587 -91.5551 -20.6876 2.13429 1.20518
1.5322 0.68625 0.78767 892.90617 0 4.34572 -1.53606 -1.66319 1.00421 4.25791 -1.7188 -0.32228 5.43952 -12.50985 37.56327 136.20556 143.28442 -37.28824 -14.38499 20.73605 -3.3149 -48.86405 36.99504 -120.12207 -37.32755 8.40414 69.68311 13.15206 -0.4195 -72.55688 -0.00264 0.9695 14.78593 92.24267 -12.66353 28.49512 -91.59531 -20.65002 2.13999 1.22312
1.53238 0.6861 0.78824 892.92198 0 4.2231 -1.29404 -1.64108 1.01363 4.63988 -1.46167 -0.35083 5.38291 -12.49814 37.32687 136.19283 144.2633 -37.53431 -14.49297 20.82162 -3.98524 -49.23741 35.24013 -120.82571 -39.21561 8.37448 69.69773 13.15199 -0.54122 -72.53275 -0.05398 0.96131 14.7861 92.29097 -12.61018 28.50233 -91.66995 -20.66231 2.14272 1.3283
1.53248 0.68596 0.78869 892.90533 0 4.09311 -1.0303 -1.62498 1.04633 5.00927 -1.18278 -0.3644 5.33143 -12.49276 37.08892 136.17856 145.27975 -37.81246 -14.57405 20.98155 -4.73623 -49.7138 33.2333 -121.6338 -41.4509 8.33959 69.69959 13.1519 -0.7191 -72.4986 -0.12683 0.94956 14.78627 92.37896 -12.53991 28.48526 -91.79774 -20.72068 2.14012 1.53929
1.53277 0.6858 0.78946 892.9652 0 3.98261 -0.81793 -1.59282 1.02011 5.40895 -0.9524 -0.42038 5.27314 -12.46212 36.84568 136.16708 146.18211 -38.04331 -14.67758 21.04213 -5.36509 -50.03663 31.57897 -122.25983 -43.203 8.32847 69.72446 13.15172 -0.76266 -72.48506 -0.13803 0.94846 14.78641 92.34784 -12.5029 28.53362 -91.79095 -20.65242 2.15064 1.47399
1.53366 0.6856 0.79107 893.23967 0 3.9255 -0.74442 -1.51675 0.83555 5.90711 -0.86362 -0.58548 5.17951 -12.36555 36.58554 136.16317 146.83754 -38.11743 -14.89332 20.75748 -5.60682 -49.87705 31.07914 -122.3329 -43.37167 8.37479 69.82212 13.15139 -0.431 -72.53299 0.00996 0.97451 14.78654 92.00969 -12.56354 28.75036 -91.41932 -20.24472 2.1972 0.65875
1.53474 0.6854 0.79296 893.58768 0 3.887 -0.7213 -1.42586 0.59449 6.43086 -0.82183 -0.79103 5.07959 -12.24748 36.32292 136.16238 147.38012 -38.13682 -15.13348 20.37004 -5.72056 -49.55612 30.95328 -122.22087 -43.02858 8.44339 69.94261 13.15097 0.02954 -72.60103 0.21643 1.01063 14.78665 91.55974 -12.65715 29.03078 -90.91842 -19.7175 2.25624 -0.41868
1.5357 0.6852 0.79469 893.89369 0 3.83776 -0.67289 -1.34431 0.3838 6.92914 -0.75189 -0.97574 4.9892 -12.14597 36.06884 136.1608 147.95734 -38.1774 -15.35113 20.04272 -5.89645 -49.31029 30.64563 -122.20439 -42.93461 8.49995 70.0491 13.15058 0.41632 -72.6571 0.39169 1.04139 14.78677 91.17162 -12.73293 29.28073 -90.48807 -19.25903 2.30826 -1.34611
1.53679 0.68498 0.7966 894.23712 0 3.79858 -0.63505 -1.2512 0.15175 7.4872 -0.71065 -1.17245 4.8715 -12.01384 35.78308 136.15654 148.59935 -38.2382 -15.6114 19.66566 -6.06211 -49.065 30.36362 -122.14523 -42.80331 8.56594 70.17028 13.15024 0.86942 -72.72497 0.58866 1.07588 14.78688 90.73192 -12.82044 29.53906 -90.00479 -18.73559 2.36645 -2.41122
1.53767 0.6848 0.79818 894.51976 0 3.74282 -0.58737 -1.17882 -0.04871 7.92594 -0.62109 -1.35316 4.80889 -11.94106 35.56208 136.15854 149.08133 -38.24193 -15.79147 19.36564 -6.21603 -48.77737 30.12665 -122.12831 -42.61613 8.61729 70.26656 13.14975 1.21451 -72.77318 0.75383 1.10488 14.787 90.37464 -12.89153 29.79444 -89.60188 -18.32018 2.41442 -3.24987
1.53792 0.6847 0.79876 894.61484 0 3.63536 -0.49556 -1.16793 -0.14711 8.03304 -0.38311 -1.4797 4.89965 -12.03814 35.53 136.17787 149.15209 -38.10344 -15.73536 19.29777 -6.37022 -48.41017 29.91953 -122.27984 -42.39446 8.61975 70.28793 13.14932 1.2253 -72.76156 0.81203 1.11537 14.78715 90.27735 -12.90846 30.02459 -89.4574 -18.23841 2.43317 -3.38787
1.53796 0.68464 0.799 894.64641 0 3.51083 -0.39286 -1.17847 -0.21173 8.01816 -0.09563 -1.58852 5.04598 -12.19578 35.56147 136.20327 149.06487 -37.90842 -15.59953 19.3111 -6.51574 -48.00532 29.74894 -122.47818 -42.13048 8.60694 70.28369 13.14865 1.12352 -72.72978 0.83648 1.12002 14.78731 90.26669 -12.9079 30.24957 -89.39796 -18.2691 2.44084 -3.2898
